<mxfile host="app.diagrams.net" modified="2023-05-06T11:59:40.234Z" agent="Mozilla/5.0 (Windows NT 10.0; Win64; x64) AppleWebKit/537.36 (KHTML, like Gecko) Chrome/111.0.0.0 Safari/537.36 OPR/97.0.0.0" etag="z8HC8hVKMfQqooU5UHE1" version="21.2.7" type="github">
  <diagram id="C5RBs43oDa-KdzZeNtuy" name="Page-1">
    <mxGraphModel dx="2466" dy="982" grid="1" gridSize="10" guides="1" tooltips="1" connect="1" arrows="1" fold="1" page="1" pageScale="1" pageWidth="827" pageHeight="1169" math="0" shadow="0">
      <root>
        <mxCell id="WIyWlLk6GJQsqaUBKTNV-0" />
        <mxCell id="WIyWlLk6GJQsqaUBKTNV-1" parent="WIyWlLk6GJQsqaUBKTNV-0" />
        <mxCell id="dqFevwvSZfvpne4xlaZr-0" value="Animal" style="swimlane;fontStyle=1;align=center;verticalAlign=top;childLayout=stackLayout;horizontal=1;startSize=26;horizontalStack=0;resizeParent=1;resizeParentMax=0;resizeLast=0;collapsible=1;marginBottom=0;whiteSpace=wrap;html=1;" vertex="1" parent="WIyWlLk6GJQsqaUBKTNV-1">
          <mxGeometry x="310" y="30" width="160" height="140" as="geometry" />
        </mxCell>
        <mxCell id="dqFevwvSZfvpne4xlaZr-1" value="+kindName&lt;br&gt;+weight&lt;br&gt;+Age&lt;br&gt;" style="text;strokeColor=none;fillColor=none;align=left;verticalAlign=top;spacingLeft=4;spacingRight=4;overflow=hidden;rotatable=0;points=[[0,0.5],[1,0.5]];portConstraint=eastwest;whiteSpace=wrap;html=1;" vertex="1" parent="dqFevwvSZfvpne4xlaZr-0">
          <mxGeometry y="26" width="160" height="54" as="geometry" />
        </mxCell>
        <mxCell id="dqFevwvSZfvpne4xlaZr-2" value="" style="line;strokeWidth=1;fillColor=none;align=left;verticalAlign=middle;spacingTop=-1;spacingLeft=3;spacingRight=3;rotatable=0;labelPosition=right;points=[];portConstraint=eastwest;strokeColor=inherit;" vertex="1" parent="dqFevwvSZfvpne4xlaZr-0">
          <mxGeometry y="80" width="160" height="8" as="geometry" />
        </mxCell>
        <mxCell id="dqFevwvSZfvpne4xlaZr-3" value="+getDosage()&lt;br&gt;+getFeedSchedule()" style="text;strokeColor=none;fillColor=none;align=left;verticalAlign=top;spacingLeft=4;spacingRight=4;overflow=hidden;rotatable=0;points=[[0,0.5],[1,0.5]];portConstraint=eastwest;whiteSpace=wrap;html=1;" vertex="1" parent="dqFevwvSZfvpne4xlaZr-0">
          <mxGeometry y="88" width="160" height="52" as="geometry" />
        </mxCell>
        <mxCell id="dqFevwvSZfvpne4xlaZr-4" value="Horses" style="swimlane;fontStyle=1;align=center;verticalAlign=top;childLayout=stackLayout;horizontal=1;startSize=26;horizontalStack=0;resizeParent=1;resizeParentMax=0;resizeLast=0;collapsible=1;marginBottom=0;whiteSpace=wrap;html=1;" vertex="1" parent="WIyWlLk6GJQsqaUBKTNV-1">
          <mxGeometry x="-180" y="220" width="160" height="74" as="geometry" />
        </mxCell>
        <mxCell id="dqFevwvSZfvpne4xlaZr-6" value="" style="line;strokeWidth=1;fillColor=none;align=left;verticalAlign=middle;spacingTop=-1;spacingLeft=3;spacingRight=3;rotatable=0;labelPosition=right;points=[];portConstraint=eastwest;strokeColor=inherit;" vertex="1" parent="dqFevwvSZfvpne4xlaZr-4">
          <mxGeometry y="26" width="160" height="8" as="geometry" />
        </mxCell>
        <mxCell id="dqFevwvSZfvpne4xlaZr-7" value="+getDosage()&lt;br&gt;+getFeedSchedule()&lt;br&gt;" style="text;strokeColor=none;fillColor=none;align=left;verticalAlign=top;spacingLeft=4;spacingRight=4;overflow=hidden;rotatable=0;points=[[0,0.5],[1,0.5]];portConstraint=eastwest;whiteSpace=wrap;html=1;" vertex="1" parent="dqFevwvSZfvpne4xlaZr-4">
          <mxGeometry y="34" width="160" height="40" as="geometry" />
        </mxCell>
        <mxCell id="dqFevwvSZfvpne4xlaZr-9" value="Felis" style="swimlane;fontStyle=1;align=center;verticalAlign=top;childLayout=stackLayout;horizontal=1;startSize=26;horizontalStack=0;resizeParent=1;resizeParentMax=0;resizeLast=0;collapsible=1;marginBottom=0;whiteSpace=wrap;html=1;" vertex="1" parent="WIyWlLk6GJQsqaUBKTNV-1">
          <mxGeometry x="500" y="280" width="160" height="74" as="geometry" />
        </mxCell>
        <mxCell id="dqFevwvSZfvpne4xlaZr-11" value="" style="line;strokeWidth=1;fillColor=none;align=left;verticalAlign=middle;spacingTop=-1;spacingLeft=3;spacingRight=3;rotatable=0;labelPosition=right;points=[];portConstraint=eastwest;strokeColor=inherit;" vertex="1" parent="dqFevwvSZfvpne4xlaZr-9">
          <mxGeometry y="26" width="160" height="8" as="geometry" />
        </mxCell>
        <mxCell id="dqFevwvSZfvpne4xlaZr-12" value="+getDosage()&lt;br style=&quot;border-color: var(--border-color);&quot;&gt;+getFeedSchedule()" style="text;strokeColor=none;fillColor=none;align=left;verticalAlign=top;spacingLeft=4;spacingRight=4;overflow=hidden;rotatable=0;points=[[0,0.5],[1,0.5]];portConstraint=eastwest;whiteSpace=wrap;html=1;" vertex="1" parent="dqFevwvSZfvpne4xlaZr-9">
          <mxGeometry y="34" width="160" height="40" as="geometry" />
        </mxCell>
        <mxCell id="dqFevwvSZfvpne4xlaZr-13" value="Rodentia" style="swimlane;fontStyle=1;align=center;verticalAlign=top;childLayout=stackLayout;horizontal=1;startSize=26;horizontalStack=0;resizeParent=1;resizeParentMax=0;resizeLast=0;collapsible=1;marginBottom=0;whiteSpace=wrap;html=1;" vertex="1" parent="WIyWlLk6GJQsqaUBKTNV-1">
          <mxGeometry x="1081" y="220" width="160" height="74" as="geometry" />
        </mxCell>
        <mxCell id="dqFevwvSZfvpne4xlaZr-15" value="" style="line;strokeWidth=1;fillColor=none;align=left;verticalAlign=middle;spacingTop=-1;spacingLeft=3;spacingRight=3;rotatable=0;labelPosition=right;points=[];portConstraint=eastwest;strokeColor=inherit;" vertex="1" parent="dqFevwvSZfvpne4xlaZr-13">
          <mxGeometry y="26" width="160" height="8" as="geometry" />
        </mxCell>
        <mxCell id="dqFevwvSZfvpne4xlaZr-16" value="+getDosage()&lt;br style=&quot;border-color: var(--border-color);&quot;&gt;+getFeedSchedule()" style="text;strokeColor=none;fillColor=none;align=left;verticalAlign=top;spacingLeft=4;spacingRight=4;overflow=hidden;rotatable=0;points=[[0,0.5],[1,0.5]];portConstraint=eastwest;whiteSpace=wrap;html=1;" vertex="1" parent="dqFevwvSZfvpne4xlaZr-13">
          <mxGeometry y="34" width="160" height="40" as="geometry" />
        </mxCell>
        <mxCell id="dqFevwvSZfvpne4xlaZr-17" value="Extends" style="endArrow=block;endSize=16;endFill=0;html=1;rounded=0;exitX=0.5;exitY=0;exitDx=0;exitDy=0;entryX=0.056;entryY=1.058;entryDx=0;entryDy=0;entryPerimeter=0;" edge="1" parent="WIyWlLk6GJQsqaUBKTNV-1" source="dqFevwvSZfvpne4xlaZr-4" target="dqFevwvSZfvpne4xlaZr-3">
          <mxGeometry width="160" relative="1" as="geometry">
            <mxPoint x="60" y="180" as="sourcePoint" />
            <mxPoint x="220" y="180" as="targetPoint" />
          </mxGeometry>
        </mxCell>
        <mxCell id="dqFevwvSZfvpne4xlaZr-18" value="Extends" style="endArrow=block;endSize=16;endFill=0;html=1;rounded=0;exitX=0.5;exitY=0;exitDx=0;exitDy=0;entryX=0.594;entryY=0.981;entryDx=0;entryDy=0;entryPerimeter=0;" edge="1" parent="WIyWlLk6GJQsqaUBKTNV-1" source="dqFevwvSZfvpne4xlaZr-9" target="dqFevwvSZfvpne4xlaZr-3">
          <mxGeometry width="160" relative="1" as="geometry">
            <mxPoint x="351" y="230" as="sourcePoint" />
            <mxPoint x="590" y="163" as="targetPoint" />
          </mxGeometry>
        </mxCell>
        <mxCell id="dqFevwvSZfvpne4xlaZr-19" value="Extends" style="endArrow=block;endSize=16;endFill=0;html=1;rounded=0;exitX=0.138;exitY=0.012;exitDx=0;exitDy=0;entryX=1;entryY=0.904;entryDx=0;entryDy=0;entryPerimeter=0;exitPerimeter=0;" edge="1" parent="WIyWlLk6GJQsqaUBKTNV-1" source="dqFevwvSZfvpne4xlaZr-13" target="dqFevwvSZfvpne4xlaZr-3">
          <mxGeometry width="160" relative="1" as="geometry">
            <mxPoint x="610" y="237" as="sourcePoint" />
            <mxPoint x="849" y="170" as="targetPoint" />
          </mxGeometry>
        </mxCell>
        <mxCell id="dqFevwvSZfvpne4xlaZr-60" value="Horse" style="swimlane;fontStyle=1;align=center;verticalAlign=top;childLayout=stackLayout;horizontal=1;startSize=26;horizontalStack=0;resizeParent=1;resizeParentMax=0;resizeLast=0;collapsible=1;marginBottom=0;whiteSpace=wrap;html=1;" vertex="1" parent="WIyWlLk6GJQsqaUBKTNV-1">
          <mxGeometry x="-320" y="408" width="160" height="100" as="geometry" />
        </mxCell>
        <mxCell id="dqFevwvSZfvpne4xlaZr-61" value="+ field: type" style="text;strokeColor=none;fillColor=none;align=left;verticalAlign=top;spacingLeft=4;spacingRight=4;overflow=hidden;rotatable=0;points=[[0,0.5],[1,0.5]];portConstraint=eastwest;whiteSpace=wrap;html=1;" vertex="1" parent="dqFevwvSZfvpne4xlaZr-60">
          <mxGeometry y="26" width="160" height="26" as="geometry" />
        </mxCell>
        <mxCell id="dqFevwvSZfvpne4xlaZr-62" value="" style="line;strokeWidth=1;fillColor=none;align=left;verticalAlign=middle;spacingTop=-1;spacingLeft=3;spacingRight=3;rotatable=0;labelPosition=right;points=[];portConstraint=eastwest;strokeColor=inherit;" vertex="1" parent="dqFevwvSZfvpne4xlaZr-60">
          <mxGeometry y="52" width="160" height="8" as="geometry" />
        </mxCell>
        <mxCell id="dqFevwvSZfvpne4xlaZr-63" value="+getDosage()&lt;br style=&quot;border-color: var(--border-color);&quot;&gt;+getFeedSchedule()" style="text;strokeColor=none;fillColor=none;align=left;verticalAlign=top;spacingLeft=4;spacingRight=4;overflow=hidden;rotatable=0;points=[[0,0.5],[1,0.5]];portConstraint=eastwest;whiteSpace=wrap;html=1;" vertex="1" parent="dqFevwvSZfvpne4xlaZr-60">
          <mxGeometry y="60" width="160" height="40" as="geometry" />
        </mxCell>
        <mxCell id="dqFevwvSZfvpne4xlaZr-64" value="Zebra" style="swimlane;fontStyle=1;align=center;verticalAlign=top;childLayout=stackLayout;horizontal=1;startSize=26;horizontalStack=0;resizeParent=1;resizeParentMax=0;resizeLast=0;collapsible=1;marginBottom=0;whiteSpace=wrap;html=1;" vertex="1" parent="WIyWlLk6GJQsqaUBKTNV-1">
          <mxGeometry x="-140" y="408" width="160" height="100" as="geometry" />
        </mxCell>
        <mxCell id="dqFevwvSZfvpne4xlaZr-65" value="+ field: type" style="text;strokeColor=none;fillColor=none;align=left;verticalAlign=top;spacingLeft=4;spacingRight=4;overflow=hidden;rotatable=0;points=[[0,0.5],[1,0.5]];portConstraint=eastwest;whiteSpace=wrap;html=1;" vertex="1" parent="dqFevwvSZfvpne4xlaZr-64">
          <mxGeometry y="26" width="160" height="26" as="geometry" />
        </mxCell>
        <mxCell id="dqFevwvSZfvpne4xlaZr-66" value="" style="line;strokeWidth=1;fillColor=none;align=left;verticalAlign=middle;spacingTop=-1;spacingLeft=3;spacingRight=3;rotatable=0;labelPosition=right;points=[];portConstraint=eastwest;strokeColor=inherit;" vertex="1" parent="dqFevwvSZfvpne4xlaZr-64">
          <mxGeometry y="52" width="160" height="8" as="geometry" />
        </mxCell>
        <mxCell id="dqFevwvSZfvpne4xlaZr-67" value="+getDosage()&lt;br style=&quot;border-color: var(--border-color);&quot;&gt;+getFeedSchedule()" style="text;strokeColor=none;fillColor=none;align=left;verticalAlign=top;spacingLeft=4;spacingRight=4;overflow=hidden;rotatable=0;points=[[0,0.5],[1,0.5]];portConstraint=eastwest;whiteSpace=wrap;html=1;" vertex="1" parent="dqFevwvSZfvpne4xlaZr-64">
          <mxGeometry y="60" width="160" height="40" as="geometry" />
        </mxCell>
        <mxCell id="dqFevwvSZfvpne4xlaZr-68" value="Donkey" style="swimlane;fontStyle=1;align=center;verticalAlign=top;childLayout=stackLayout;horizontal=1;startSize=26;horizontalStack=0;resizeParent=1;resizeParentMax=0;resizeLast=0;collapsible=1;marginBottom=0;whiteSpace=wrap;html=1;" vertex="1" parent="WIyWlLk6GJQsqaUBKTNV-1">
          <mxGeometry x="40" y="408" width="160" height="100" as="geometry" />
        </mxCell>
        <mxCell id="dqFevwvSZfvpne4xlaZr-69" value="+ field: type" style="text;strokeColor=none;fillColor=none;align=left;verticalAlign=top;spacingLeft=4;spacingRight=4;overflow=hidden;rotatable=0;points=[[0,0.5],[1,0.5]];portConstraint=eastwest;whiteSpace=wrap;html=1;" vertex="1" parent="dqFevwvSZfvpne4xlaZr-68">
          <mxGeometry y="26" width="160" height="26" as="geometry" />
        </mxCell>
        <mxCell id="dqFevwvSZfvpne4xlaZr-70" value="" style="line;strokeWidth=1;fillColor=none;align=left;verticalAlign=middle;spacingTop=-1;spacingLeft=3;spacingRight=3;rotatable=0;labelPosition=right;points=[];portConstraint=eastwest;strokeColor=inherit;" vertex="1" parent="dqFevwvSZfvpne4xlaZr-68">
          <mxGeometry y="52" width="160" height="8" as="geometry" />
        </mxCell>
        <mxCell id="dqFevwvSZfvpne4xlaZr-71" value="+getDosage()&lt;br style=&quot;border-color: var(--border-color);&quot;&gt;+getFeedSchedule()" style="text;strokeColor=none;fillColor=none;align=left;verticalAlign=top;spacingLeft=4;spacingRight=4;overflow=hidden;rotatable=0;points=[[0,0.5],[1,0.5]];portConstraint=eastwest;whiteSpace=wrap;html=1;" vertex="1" parent="dqFevwvSZfvpne4xlaZr-68">
          <mxGeometry y="60" width="160" height="40" as="geometry" />
        </mxCell>
        <mxCell id="dqFevwvSZfvpne4xlaZr-72" value="Tiger" style="swimlane;fontStyle=1;align=center;verticalAlign=top;childLayout=stackLayout;horizontal=1;startSize=26;horizontalStack=0;resizeParent=1;resizeParentMax=0;resizeLast=0;collapsible=1;marginBottom=0;whiteSpace=wrap;html=1;" vertex="1" parent="WIyWlLk6GJQsqaUBKTNV-1">
          <mxGeometry x="320" y="408" width="160" height="100" as="geometry" />
        </mxCell>
        <mxCell id="dqFevwvSZfvpne4xlaZr-73" value="+ field: type" style="text;strokeColor=none;fillColor=none;align=left;verticalAlign=top;spacingLeft=4;spacingRight=4;overflow=hidden;rotatable=0;points=[[0,0.5],[1,0.5]];portConstraint=eastwest;whiteSpace=wrap;html=1;" vertex="1" parent="dqFevwvSZfvpne4xlaZr-72">
          <mxGeometry y="26" width="160" height="26" as="geometry" />
        </mxCell>
        <mxCell id="dqFevwvSZfvpne4xlaZr-74" value="" style="line;strokeWidth=1;fillColor=none;align=left;verticalAlign=middle;spacingTop=-1;spacingLeft=3;spacingRight=3;rotatable=0;labelPosition=right;points=[];portConstraint=eastwest;strokeColor=inherit;" vertex="1" parent="dqFevwvSZfvpne4xlaZr-72">
          <mxGeometry y="52" width="160" height="8" as="geometry" />
        </mxCell>
        <mxCell id="dqFevwvSZfvpne4xlaZr-75" value="+getDosage()&lt;br style=&quot;border-color: var(--border-color);&quot;&gt;+getFeedSchedule()" style="text;strokeColor=none;fillColor=none;align=left;verticalAlign=top;spacingLeft=4;spacingRight=4;overflow=hidden;rotatable=0;points=[[0,0.5],[1,0.5]];portConstraint=eastwest;whiteSpace=wrap;html=1;" vertex="1" parent="dqFevwvSZfvpne4xlaZr-72">
          <mxGeometry y="60" width="160" height="40" as="geometry" />
        </mxCell>
        <mxCell id="dqFevwvSZfvpne4xlaZr-76" value="Lion" style="swimlane;fontStyle=1;align=center;verticalAlign=top;childLayout=stackLayout;horizontal=1;startSize=26;horizontalStack=0;resizeParent=1;resizeParentMax=0;resizeLast=0;collapsible=1;marginBottom=0;whiteSpace=wrap;html=1;" vertex="1" parent="WIyWlLk6GJQsqaUBKTNV-1">
          <mxGeometry x="490" y="408" width="160" height="100" as="geometry" />
        </mxCell>
        <mxCell id="dqFevwvSZfvpne4xlaZr-77" value="+ field: type" style="text;strokeColor=none;fillColor=none;align=left;verticalAlign=top;spacingLeft=4;spacingRight=4;overflow=hidden;rotatable=0;points=[[0,0.5],[1,0.5]];portConstraint=eastwest;whiteSpace=wrap;html=1;" vertex="1" parent="dqFevwvSZfvpne4xlaZr-76">
          <mxGeometry y="26" width="160" height="26" as="geometry" />
        </mxCell>
        <mxCell id="dqFevwvSZfvpne4xlaZr-78" value="" style="line;strokeWidth=1;fillColor=none;align=left;verticalAlign=middle;spacingTop=-1;spacingLeft=3;spacingRight=3;rotatable=0;labelPosition=right;points=[];portConstraint=eastwest;strokeColor=inherit;" vertex="1" parent="dqFevwvSZfvpne4xlaZr-76">
          <mxGeometry y="52" width="160" height="8" as="geometry" />
        </mxCell>
        <mxCell id="dqFevwvSZfvpne4xlaZr-79" value="+getDosage()&lt;br style=&quot;border-color: var(--border-color);&quot;&gt;+getFeedSchedule()" style="text;strokeColor=none;fillColor=none;align=left;verticalAlign=top;spacingLeft=4;spacingRight=4;overflow=hidden;rotatable=0;points=[[0,0.5],[1,0.5]];portConstraint=eastwest;whiteSpace=wrap;html=1;" vertex="1" parent="dqFevwvSZfvpne4xlaZr-76">
          <mxGeometry y="60" width="160" height="40" as="geometry" />
        </mxCell>
        <mxCell id="dqFevwvSZfvpne4xlaZr-80" value="Cat" style="swimlane;fontStyle=1;align=center;verticalAlign=top;childLayout=stackLayout;horizontal=1;startSize=26;horizontalStack=0;resizeParent=1;resizeParentMax=0;resizeLast=0;collapsible=1;marginBottom=0;whiteSpace=wrap;html=1;" vertex="1" parent="WIyWlLk6GJQsqaUBKTNV-1">
          <mxGeometry x="660" y="408" width="160" height="100" as="geometry" />
        </mxCell>
        <mxCell id="dqFevwvSZfvpne4xlaZr-81" value="+ field: type" style="text;strokeColor=none;fillColor=none;align=left;verticalAlign=top;spacingLeft=4;spacingRight=4;overflow=hidden;rotatable=0;points=[[0,0.5],[1,0.5]];portConstraint=eastwest;whiteSpace=wrap;html=1;" vertex="1" parent="dqFevwvSZfvpne4xlaZr-80">
          <mxGeometry y="26" width="160" height="26" as="geometry" />
        </mxCell>
        <mxCell id="dqFevwvSZfvpne4xlaZr-82" value="" style="line;strokeWidth=1;fillColor=none;align=left;verticalAlign=middle;spacingTop=-1;spacingLeft=3;spacingRight=3;rotatable=0;labelPosition=right;points=[];portConstraint=eastwest;strokeColor=inherit;" vertex="1" parent="dqFevwvSZfvpne4xlaZr-80">
          <mxGeometry y="52" width="160" height="8" as="geometry" />
        </mxCell>
        <mxCell id="dqFevwvSZfvpne4xlaZr-83" value="+getDosage()&lt;br style=&quot;border-color: var(--border-color);&quot;&gt;+getFeedSchedule()" style="text;strokeColor=none;fillColor=none;align=left;verticalAlign=top;spacingLeft=4;spacingRight=4;overflow=hidden;rotatable=0;points=[[0,0.5],[1,0.5]];portConstraint=eastwest;whiteSpace=wrap;html=1;" vertex="1" parent="dqFevwvSZfvpne4xlaZr-80">
          <mxGeometry y="60" width="160" height="40" as="geometry" />
        </mxCell>
        <mxCell id="dqFevwvSZfvpne4xlaZr-84" value="Rat" style="swimlane;fontStyle=1;align=center;verticalAlign=top;childLayout=stackLayout;horizontal=1;startSize=26;horizontalStack=0;resizeParent=1;resizeParentMax=0;resizeLast=0;collapsible=1;marginBottom=0;whiteSpace=wrap;html=1;" vertex="1" parent="WIyWlLk6GJQsqaUBKTNV-1">
          <mxGeometry x="960" y="400" width="160" height="110" as="geometry" />
        </mxCell>
        <mxCell id="dqFevwvSZfvpne4xlaZr-85" value="+ field: type" style="text;strokeColor=none;fillColor=none;align=left;verticalAlign=top;spacingLeft=4;spacingRight=4;overflow=hidden;rotatable=0;points=[[0,0.5],[1,0.5]];portConstraint=eastwest;whiteSpace=wrap;html=1;" vertex="1" parent="dqFevwvSZfvpne4xlaZr-84">
          <mxGeometry y="26" width="160" height="26" as="geometry" />
        </mxCell>
        <mxCell id="dqFevwvSZfvpne4xlaZr-86" value="" style="line;strokeWidth=1;fillColor=none;align=left;verticalAlign=middle;spacingTop=-1;spacingLeft=3;spacingRight=3;rotatable=0;labelPosition=right;points=[];portConstraint=eastwest;strokeColor=inherit;" vertex="1" parent="dqFevwvSZfvpne4xlaZr-84">
          <mxGeometry y="52" width="160" height="8" as="geometry" />
        </mxCell>
        <mxCell id="dqFevwvSZfvpne4xlaZr-87" value="+getDosage()&lt;br style=&quot;border-color: var(--border-color);&quot;&gt;+getFeedSchedule()" style="text;strokeColor=none;fillColor=none;align=left;verticalAlign=top;spacingLeft=4;spacingRight=4;overflow=hidden;rotatable=0;points=[[0,0.5],[1,0.5]];portConstraint=eastwest;whiteSpace=wrap;html=1;" vertex="1" parent="dqFevwvSZfvpne4xlaZr-84">
          <mxGeometry y="60" width="160" height="50" as="geometry" />
        </mxCell>
        <mxCell id="dqFevwvSZfvpne4xlaZr-88" value="Mouse" style="swimlane;fontStyle=1;align=center;verticalAlign=top;childLayout=stackLayout;horizontal=1;startSize=26;horizontalStack=0;resizeParent=1;resizeParentMax=0;resizeLast=0;collapsible=1;marginBottom=0;whiteSpace=wrap;html=1;" vertex="1" parent="WIyWlLk6GJQsqaUBKTNV-1">
          <mxGeometry x="1140" y="400" width="160" height="110" as="geometry" />
        </mxCell>
        <mxCell id="dqFevwvSZfvpne4xlaZr-89" value="+ field: type" style="text;strokeColor=none;fillColor=none;align=left;verticalAlign=top;spacingLeft=4;spacingRight=4;overflow=hidden;rotatable=0;points=[[0,0.5],[1,0.5]];portConstraint=eastwest;whiteSpace=wrap;html=1;" vertex="1" parent="dqFevwvSZfvpne4xlaZr-88">
          <mxGeometry y="26" width="160" height="26" as="geometry" />
        </mxCell>
        <mxCell id="dqFevwvSZfvpne4xlaZr-90" value="" style="line;strokeWidth=1;fillColor=none;align=left;verticalAlign=middle;spacingTop=-1;spacingLeft=3;spacingRight=3;rotatable=0;labelPosition=right;points=[];portConstraint=eastwest;strokeColor=inherit;" vertex="1" parent="dqFevwvSZfvpne4xlaZr-88">
          <mxGeometry y="52" width="160" height="8" as="geometry" />
        </mxCell>
        <mxCell id="dqFevwvSZfvpne4xlaZr-91" value="+getDosage()&lt;br style=&quot;border-color: var(--border-color);&quot;&gt;+getFeedSchedule()" style="text;strokeColor=none;fillColor=none;align=left;verticalAlign=top;spacingLeft=4;spacingRight=4;overflow=hidden;rotatable=0;points=[[0,0.5],[1,0.5]];portConstraint=eastwest;whiteSpace=wrap;html=1;" vertex="1" parent="dqFevwvSZfvpne4xlaZr-88">
          <mxGeometry y="60" width="160" height="50" as="geometry" />
        </mxCell>
        <mxCell id="dqFevwvSZfvpne4xlaZr-92" value="Beaver&lt;br&gt;" style="swimlane;fontStyle=1;align=center;verticalAlign=top;childLayout=stackLayout;horizontal=1;startSize=26;horizontalStack=0;resizeParent=1;resizeParentMax=0;resizeLast=0;collapsible=1;marginBottom=0;whiteSpace=wrap;html=1;" vertex="1" parent="WIyWlLk6GJQsqaUBKTNV-1">
          <mxGeometry x="1310" y="400" width="160" height="110" as="geometry" />
        </mxCell>
        <mxCell id="dqFevwvSZfvpne4xlaZr-93" value="+ field: type" style="text;strokeColor=none;fillColor=none;align=left;verticalAlign=top;spacingLeft=4;spacingRight=4;overflow=hidden;rotatable=0;points=[[0,0.5],[1,0.5]];portConstraint=eastwest;whiteSpace=wrap;html=1;" vertex="1" parent="dqFevwvSZfvpne4xlaZr-92">
          <mxGeometry y="26" width="160" height="26" as="geometry" />
        </mxCell>
        <mxCell id="dqFevwvSZfvpne4xlaZr-94" value="" style="line;strokeWidth=1;fillColor=none;align=left;verticalAlign=middle;spacingTop=-1;spacingLeft=3;spacingRight=3;rotatable=0;labelPosition=right;points=[];portConstraint=eastwest;strokeColor=inherit;" vertex="1" parent="dqFevwvSZfvpne4xlaZr-92">
          <mxGeometry y="52" width="160" height="8" as="geometry" />
        </mxCell>
        <mxCell id="dqFevwvSZfvpne4xlaZr-95" value="+getDosage()&lt;br style=&quot;border-color: var(--border-color);&quot;&gt;+getFeedSchedule()" style="text;strokeColor=none;fillColor=none;align=left;verticalAlign=top;spacingLeft=4;spacingRight=4;overflow=hidden;rotatable=0;points=[[0,0.5],[1,0.5]];portConstraint=eastwest;whiteSpace=wrap;html=1;" vertex="1" parent="dqFevwvSZfvpne4xlaZr-92">
          <mxGeometry y="60" width="160" height="50" as="geometry" />
        </mxCell>
        <mxCell id="dqFevwvSZfvpne4xlaZr-97" value="Extends" style="endArrow=block;endSize=16;endFill=0;html=1;rounded=0;exitX=0.4;exitY=0.012;exitDx=0;exitDy=0;exitPerimeter=0;entryX=0.975;entryY=1;entryDx=0;entryDy=0;entryPerimeter=0;" edge="1" parent="WIyWlLk6GJQsqaUBKTNV-1" source="dqFevwvSZfvpne4xlaZr-68" target="dqFevwvSZfvpne4xlaZr-7">
          <mxGeometry width="160" relative="1" as="geometry">
            <mxPoint x="-430" y="240" as="sourcePoint" />
            <mxPoint x="-270" y="240" as="targetPoint" />
            <Array as="points" />
          </mxGeometry>
        </mxCell>
        <mxCell id="dqFevwvSZfvpne4xlaZr-98" value="Extends" style="endArrow=block;endSize=16;endFill=0;html=1;rounded=0;exitX=0.325;exitY=-0.023;exitDx=0;exitDy=0;exitPerimeter=0;entryX=0.419;entryY=1.05;entryDx=0;entryDy=0;entryPerimeter=0;" edge="1" parent="WIyWlLk6GJQsqaUBKTNV-1" source="dqFevwvSZfvpne4xlaZr-64" target="dqFevwvSZfvpne4xlaZr-7">
          <mxGeometry width="160" relative="1" as="geometry">
            <mxPoint x="-80" y="400" as="sourcePoint" />
            <mxPoint x="50" y="350" as="targetPoint" />
          </mxGeometry>
        </mxCell>
        <mxCell id="dqFevwvSZfvpne4xlaZr-99" value="Extends" style="endArrow=block;endSize=16;endFill=0;html=1;rounded=0;exitX=0.413;exitY=-0.07;exitDx=0;exitDy=0;exitPerimeter=0;entryX=0.063;entryY=1;entryDx=0;entryDy=0;entryPerimeter=0;" edge="1" parent="WIyWlLk6GJQsqaUBKTNV-1" source="dqFevwvSZfvpne4xlaZr-60" target="dqFevwvSZfvpne4xlaZr-7">
          <mxGeometry width="160" relative="1" as="geometry">
            <mxPoint x="-390" y="290" as="sourcePoint" />
            <mxPoint x="-230" y="290" as="targetPoint" />
          </mxGeometry>
        </mxCell>
        <mxCell id="dqFevwvSZfvpne4xlaZr-100" value="Extends" style="endArrow=block;endSize=16;endFill=0;html=1;rounded=0;exitX=0.594;exitY=0.012;exitDx=0;exitDy=0;exitPerimeter=0;" edge="1" parent="WIyWlLk6GJQsqaUBKTNV-1" source="dqFevwvSZfvpne4xlaZr-72" target="dqFevwvSZfvpne4xlaZr-12">
          <mxGeometry width="160" relative="1" as="geometry">
            <mxPoint x="300" y="370" as="sourcePoint" />
            <mxPoint x="460" y="370" as="targetPoint" />
          </mxGeometry>
        </mxCell>
        <mxCell id="dqFevwvSZfvpne4xlaZr-102" value="Extends" style="endArrow=block;endSize=16;endFill=0;html=1;rounded=0;exitX=0.638;exitY=0;exitDx=0;exitDy=0;exitPerimeter=0;entryX=0.444;entryY=1.175;entryDx=0;entryDy=0;entryPerimeter=0;" edge="1" parent="WIyWlLk6GJQsqaUBKTNV-1" source="dqFevwvSZfvpne4xlaZr-76" target="dqFevwvSZfvpne4xlaZr-12">
          <mxGeometry width="160" relative="1" as="geometry">
            <mxPoint x="590" y="400" as="sourcePoint" />
            <mxPoint x="711" y="345" as="targetPoint" />
          </mxGeometry>
        </mxCell>
        <mxCell id="dqFevwvSZfvpne4xlaZr-103" value="Extends" style="endArrow=block;endSize=16;endFill=0;html=1;rounded=0;exitX=0.294;exitY=0.035;exitDx=0;exitDy=0;exitPerimeter=0;entryX=0.938;entryY=0.975;entryDx=0;entryDy=0;entryPerimeter=0;" edge="1" parent="WIyWlLk6GJQsqaUBKTNV-1" source="dqFevwvSZfvpne4xlaZr-80" target="dqFevwvSZfvpne4xlaZr-12">
          <mxGeometry width="160" relative="1" as="geometry">
            <mxPoint x="706" y="385" as="sourcePoint" />
            <mxPoint x="827" y="330" as="targetPoint" />
          </mxGeometry>
        </mxCell>
        <mxCell id="dqFevwvSZfvpne4xlaZr-104" value="Extends" style="endArrow=block;endSize=16;endFill=0;html=1;rounded=0;exitX=0.25;exitY=0;exitDx=0;exitDy=0;entryX=0.013;entryY=0.975;entryDx=0;entryDy=0;entryPerimeter=0;" edge="1" parent="WIyWlLk6GJQsqaUBKTNV-1" source="dqFevwvSZfvpne4xlaZr-84" target="dqFevwvSZfvpne4xlaZr-16">
          <mxGeometry width="160" relative="1" as="geometry">
            <mxPoint x="960" y="378" as="sourcePoint" />
            <mxPoint x="903" y="320" as="targetPoint" />
            <Array as="points">
              <mxPoint x="1030" y="350" />
            </Array>
          </mxGeometry>
        </mxCell>
        <mxCell id="dqFevwvSZfvpne4xlaZr-105" value="Extends" style="endArrow=block;endSize=16;endFill=0;html=1;rounded=0;exitX=0.375;exitY=0;exitDx=0;exitDy=0;exitPerimeter=0;entryX=0.5;entryY=1.075;entryDx=0;entryDy=0;entryPerimeter=0;" edge="1" parent="WIyWlLk6GJQsqaUBKTNV-1" source="dqFevwvSZfvpne4xlaZr-88" target="dqFevwvSZfvpne4xlaZr-16">
          <mxGeometry width="160" relative="1" as="geometry">
            <mxPoint x="1199" y="387" as="sourcePoint" />
            <mxPoint x="1161" y="310" as="targetPoint" />
            <Array as="points">
              <mxPoint x="1180" y="337" />
            </Array>
          </mxGeometry>
        </mxCell>
        <mxCell id="dqFevwvSZfvpne4xlaZr-107" value="Extends" style="endArrow=block;endSize=16;endFill=0;html=1;rounded=0;exitX=0.25;exitY=0;exitDx=0;exitDy=0;entryX=0.9;entryY=1.1;entryDx=0;entryDy=0;entryPerimeter=0;" edge="1" parent="WIyWlLk6GJQsqaUBKTNV-1" source="dqFevwvSZfvpne4xlaZr-92" target="dqFevwvSZfvpne4xlaZr-16">
          <mxGeometry width="160" relative="1" as="geometry">
            <mxPoint x="1349" y="368.5" as="sourcePoint" />
            <mxPoint x="1310" y="265.5" as="targetPoint" />
            <Array as="points">
              <mxPoint x="1329" y="305.5" />
            </Array>
          </mxGeometry>
        </mxCell>
      </root>
    </mxGraphModel>
  </diagram>
</mxfile>
